<mxfile host="65bd71144e">
    <diagram id="wg13ipgk2D7z2NkiP3FA" name="Page-1">
        <mxGraphModel dx="924" dy="779" grid="0" gridSize="10" guides="1" tooltips="1" connect="1" arrows="1" fold="1" page="1" pageScale="1" pageWidth="850" pageHeight="1100" background="#ffffff" math="0" shadow="0">
            <root>
                <mxCell id="0"/>
                <mxCell id="1" parent="0"/>
                <mxCell id="2" value="Main Dialog" style="rounded=1;whiteSpace=wrap;html=1;fillColor=none;strokeColor=#000000;labelPosition=center;verticalLabelPosition=top;align=center;verticalAlign=bottom;fontColor=#000000;" vertex="1" parent="1">
                    <mxGeometry x="221" y="22" width="403" height="380" as="geometry"/>
                </mxCell>
                <mxCell id="3" value="InitialStep" style="rounded=0;whiteSpace=wrap;html=1;strokeColor=#000000;fontColor=#000000;fillColor=none;" vertex="1" parent="1">
                    <mxGeometry x="137" y="555" width="128" height="24" as="geometry"/>
                </mxCell>
                <mxCell id="4" value="Greeting Dialog" style="rounded=1;whiteSpace=wrap;html=1;fillColor=none;strokeColor=#000000;labelPosition=center;verticalLabelPosition=bottom;align=center;verticalAlign=top;fontColor=#000000;" vertex="1" parent="1">
                    <mxGeometry x="31" y="519" width="343" height="209" as="geometry"/>
                </mxCell>
                <mxCell id="6" style="edgeStyle=none;html=1;entryX=0.5;entryY=0;entryDx=0;entryDy=0;fontColor=#000000;strokeColor=#000000;" edge="1" parent="1" source="5" target="4">
                    <mxGeometry relative="1" as="geometry">
                        <Array as="points">
                            <mxPoint x="203" y="74"/>
                        </Array>
                    </mxGeometry>
                </mxCell>
                <mxCell id="21" style="edgeStyle=none;html=1;strokeColor=#000000;fontColor=#000000;" edge="1" parent="1" source="5" target="9">
                    <mxGeometry relative="1" as="geometry"/>
                </mxCell>
                <mxCell id="5" value="InitialStep" style="rounded=0;whiteSpace=wrap;html=1;strokeColor=#000000;fontColor=#000000;fillColor=none;" vertex="1" parent="1">
                    <mxGeometry x="338.5" y="59" width="128" height="24" as="geometry"/>
                </mxCell>
                <mxCell id="8" value="RetrieveQuestion" style="rounded=0;whiteSpace=wrap;html=1;strokeColor=#000000;fontColor=#000000;fillColor=none;" vertex="1" parent="1">
                    <mxGeometry x="137" y="608" width="128" height="24" as="geometry"/>
                </mxCell>
                <mxCell id="22" style="edgeStyle=none;html=1;strokeColor=#000000;fontColor=#000000;" edge="1" parent="1" source="9" target="16">
                    <mxGeometry relative="1" as="geometry"/>
                </mxCell>
                <mxCell id="9" value="SearchKB" style="rounded=0;whiteSpace=wrap;html=1;strokeColor=#000000;fontColor=#000000;fillColor=none;" vertex="1" parent="1">
                    <mxGeometry x="338.5" y="110" width="128" height="24" as="geometry"/>
                </mxCell>
                <mxCell id="10" value="Knowledge Dialog" style="rounded=1;whiteSpace=wrap;html=1;fillColor=none;strokeColor=#000000;labelPosition=center;verticalLabelPosition=bottom;align=center;verticalAlign=top;fontColor=#000000;" vertex="1" parent="1">
                    <mxGeometry x="446" y="519" width="343" height="209" as="geometry"/>
                </mxCell>
                <mxCell id="14" style="edgeStyle=none;html=1;strokeColor=#000000;fontColor=#000000;" edge="1" parent="1" source="11" target="12">
                    <mxGeometry relative="1" as="geometry"/>
                </mxCell>
                <mxCell id="11" value="SearchInKB" style="rounded=0;whiteSpace=wrap;html=1;strokeColor=#000000;fontColor=#000000;fillColor=none;" vertex="1" parent="1">
                    <mxGeometry x="553.5" y="553" width="128" height="24" as="geometry"/>
                </mxCell>
                <mxCell id="15" style="edgeStyle=none;html=1;strokeColor=#000000;fontColor=#000000;" edge="1" parent="1" source="12" target="13">
                    <mxGeometry relative="1" as="geometry"/>
                </mxCell>
                <mxCell id="12" value="ValidateAnswer" style="rounded=0;whiteSpace=wrap;html=1;strokeColor=#000000;fontColor=#000000;fillColor=none;" vertex="1" parent="1">
                    <mxGeometry x="553.5" y="608" width="128" height="24" as="geometry"/>
                </mxCell>
                <mxCell id="17" style="edgeStyle=none;html=1;entryX=1;entryY=0.5;entryDx=0;entryDy=0;strokeColor=#000000;fontColor=#000000;exitX=1;exitY=0.5;exitDx=0;exitDy=0;" edge="1" parent="1" source="13" target="9">
                    <mxGeometry relative="1" as="geometry">
                        <Array as="points">
                            <mxPoint x="742" y="676"/>
                            <mxPoint x="733" y="124"/>
                        </Array>
                    </mxGeometry>
                </mxCell>
                <mxCell id="13" value="FinalStep" style="rounded=0;whiteSpace=wrap;html=1;strokeColor=#000000;fontColor=#000000;fillColor=none;" vertex="1" parent="1">
                    <mxGeometry x="554" y="664" width="128" height="24" as="geometry"/>
                </mxCell>
                <mxCell id="20" value="YES" style="edgeStyle=none;html=1;strokeColor=#000000;fontColor=#000000;labelBackgroundColor=none;labelPosition=center;verticalLabelPosition=bottom;align=center;verticalAlign=top;" edge="1" parent="1" source="16" target="19">
                    <mxGeometry relative="1" as="geometry"/>
                </mxCell>
                <mxCell id="24" style="edgeStyle=none;html=1;labelBackgroundColor=none;strokeColor=#000000;fontColor=#000000;" edge="1" parent="1" source="16" target="23">
                    <mxGeometry relative="1" as="geometry"/>
                </mxCell>
                <mxCell id="16" value="Answer&lt;br&gt;Found" style="rhombus;whiteSpace=wrap;html=1;strokeColor=#000000;fontColor=#000000;fillColor=none;" vertex="1" parent="1">
                    <mxGeometry x="371" y="172" width="63.5" height="60" as="geometry"/>
                </mxCell>
                <mxCell id="19" value="End&lt;br&gt;Conversation" style="rounded=0;whiteSpace=wrap;html=1;strokeColor=#000000;fontColor=#000000;fillColor=none;" vertex="1" parent="1">
                    <mxGeometry x="502" y="185.5" width="102" height="33" as="geometry"/>
                </mxCell>
                <mxCell id="30" style="edgeStyle=none;html=1;entryX=0;entryY=0.5;entryDx=0;entryDy=0;labelBackgroundColor=none;strokeColor=#000000;fontColor=#000000;" edge="1" parent="1" source="23" target="27">
                    <mxGeometry relative="1" as="geometry"/>
                </mxCell>
                <mxCell id="34" style="edgeStyle=none;html=1;entryX=0.5;entryY=0;entryDx=0;entryDy=0;labelBackgroundColor=none;strokeColor=#000000;fontColor=#000000;" edge="1" parent="1" source="23" target="33">
                    <mxGeometry relative="1" as="geometry"/>
                </mxCell>
                <mxCell id="23" value="Search Retrieval&lt;br&gt;Plugin" style="rounded=0;whiteSpace=wrap;html=1;strokeColor=#000000;fontColor=#000000;fillColor=none;" vertex="1" parent="1">
                    <mxGeometry x="315.75" y="274" width="174.25" height="33" as="geometry"/>
                </mxCell>
                <mxCell id="26" value="Knowledge Dialog" style="rounded=1;whiteSpace=wrap;html=1;fillColor=none;strokeColor=#000000;labelPosition=center;verticalLabelPosition=bottom;align=center;verticalAlign=top;fontColor=#000000;" vertex="1" parent="1">
                    <mxGeometry x="754" y="249" width="343" height="209" as="geometry"/>
                </mxCell>
                <mxCell id="31" style="edgeStyle=none;html=1;labelBackgroundColor=none;strokeColor=#000000;fontColor=#000000;" edge="1" parent="1" source="27" target="28">
                    <mxGeometry relative="1" as="geometry"/>
                </mxCell>
                <mxCell id="27" value="SearchExtendedSource" style="rounded=0;whiteSpace=wrap;html=1;strokeColor=#000000;fontColor=#000000;fillColor=none;" vertex="1" parent="1">
                    <mxGeometry x="861.25" y="278" width="128" height="24" as="geometry"/>
                </mxCell>
                <mxCell id="32" style="edgeStyle=none;html=1;labelBackgroundColor=none;strokeColor=#000000;fontColor=#000000;" edge="1" parent="1" source="28" target="29">
                    <mxGeometry relative="1" as="geometry"/>
                </mxCell>
                <mxCell id="28" value="ValidateAnswer" style="rounded=0;whiteSpace=wrap;html=1;strokeColor=#000000;fontColor=#000000;fillColor=none;" vertex="1" parent="1">
                    <mxGeometry x="861.25" y="333" width="128" height="24" as="geometry"/>
                </mxCell>
                <mxCell id="35" style="edgeStyle=none;html=1;entryX=1;entryY=0.5;entryDx=0;entryDy=0;labelBackgroundColor=none;strokeColor=#000000;fontColor=#000000;exitX=0;exitY=0.5;exitDx=0;exitDy=0;" edge="1" parent="1" source="29" target="33">
                    <mxGeometry relative="1" as="geometry"/>
                </mxCell>
                <mxCell id="29" value="FinalStep" style="rounded=0;whiteSpace=wrap;html=1;strokeColor=#000000;fontColor=#000000;fillColor=none;" vertex="1" parent="1">
                    <mxGeometry x="861.75" y="389" width="128" height="24" as="geometry"/>
                </mxCell>
                <mxCell id="33" value="FinalStep" style="rounded=0;whiteSpace=wrap;html=1;strokeColor=#000000;fontColor=#000000;fillColor=none;" vertex="1" parent="1">
                    <mxGeometry x="315.75" y="343" width="174.25" height="33" as="geometry"/>
                </mxCell>
            </root>
        </mxGraphModel>
    </diagram>
</mxfile>